<?xml version="1.0" encoding="UTF-8"?>
<svg id="Calque_1" data-name="Calque 1" xmlns="http://www.w3.org/2000/svg" version="1.1" viewBox="0 0 42.29 42.29">
  <defs>
    <style>
      .cls-1 {
        fill: #9a1c40;
      }

      .cls-1, .cls-2 {
        stroke-width: 0px;
      }

      .cls-2 {
        fill: #26539c;
      }
    </style>
  </defs>
  <polygon class="cls-1" points="9.86 34.08 9.86 35.57 31.29 35.57 31.61 34.08 9.86 34.08"/>
  <path class="cls-2" d="M14.94,6.71h10.1c5.74,0,8.02,2.76,7.23,6.48-.51,2.42-2.21,3.77-3.82,4.62,2.26.87,3.54,2.89,2.89,5.95-.93,4.38-4.75,6.53-10.71,6.53h-10.7L14.94,6.71ZM21.47,24.87c1.68,0,2.53-.69,2.81-1.92.26-1.25-.22-2.04-1.96-2.04h-3.69l-.85,3.96h3.69ZM22.72,15.9c1.25,0,2.08-.69,2.33-1.84.26-1.15-.22-1.94-1.52-1.94h-3.03l-.8,3.78h3.03Z"/>
</svg>