<?xml version="1.0" encoding="UTF-8"?>
<svg id="Calque_1" data-name="Calque 1" xmlns="http://www.w3.org/2000/svg" version="1.1" viewBox="0 0 48 48">
  <defs>
    <style>
      .cls-1 {
        fill: #fff;
        stroke-width: 0px;
      }
    </style>
  </defs>
  <path class="cls-1" d="M30,12h-12c-3.4,0-6,2.6-6,6v12c0,3.4,2.6,6,6,6h12c3.4,0,6-2.6,6-6v-12c0-3.4-2.6-6-6-6ZM24,31c-3.9,0-7-3.1-7-7s3.1-7,7-7,7,3.1,7,7-3.1,7-7,7ZM31,17c-.6,0-1-.4-1-1s.4-1,1-1,1,.4,1,1-.4,1-1,1Z"/>
  <path class="cls-1" d="M24,19c-2.8,0-5,2.2-5,5s2.2,5,5,5,5-2.2,5-5-2.2-5-5-5Z"/>
  <path class="cls-1" d="M42,15.5c0-.7-.1-1.4-.3-2,0-.4-.2-.8-.4-1.2-1.5-3.7-5.1-6.3-9.3-6.3h-16c-.8,0-1.5,0-2.2.3-2.5.6-4.6,2.1-6,4.1-.2.3-.4.7-.6,1-.3.7-.6,1.3-.8,2.1,0,.2-.1.4-.2.7-.1.6-.2,1.2-.2,1.8v16c0,.8,0,1.7.3,2.4.1.5.3.9.4,1.3.2.6.5,1.2.9,1.7.2.4.5.7.8,1,.4.4.8.8,1.2,1.2.2.2.5.4.8.6.3.2.5.4.8.5h0c.2.1.4.2.6.3.6.3,1.3.5,2,.7h0c0,0,.2,0,.3,0,.6.1,1.2.2,1.9.2h16c.4,0,.8,0,1.1,0h0c.3,0,.7,0,1-.2.5-.1.9-.2,1.4-.4.2,0,.5-.2.7-.3.2,0,.4-.2.7-.3.5-.3,1-.7,1.5-1,.5-.4,1-.9,1.5-1.5.1-.2.3-.4.4-.6.2-.3.4-.7.6-1.1.4-.8.7-1.7.9-2.6.1-.6.2-1.3.2-1.9v-16c0-.2,0-.3,0-.5ZM38,30c0,4.5-3.5,8-8,8h-12c-4.5,0-8-3.5-8-8v-12c0-4.5,3.5-8,8-8h12c4.5,0,8,3.5,8,8v12Z"/>
</svg>