<?xml version="1.0" encoding="UTF-8"?>
<svg id="Calque_1" data-name="Calque 1" xmlns="http://www.w3.org/2000/svg" version="1.1" viewBox="0 0 48 48">
  <defs>
    <style>
      .cls-1 {
        fill: #fff;
        fill-rule: evenodd;
        stroke-width: 0px;
      }
    </style>
  </defs>
  <path class="cls-1" d="M38,6H10c-2.2,0-4,1.8-4,4v28c0,2.2,1.8,4,4,4h28c2.2,0,4-1.8,4-4V10c0-2.2-1.8-4-4-4ZM16.9,37h-5.4v-17.3h5.4v17.3ZM14.2,17.4c-1.8,0-3.2-1.4-3.2-3.2s1.4-3.2,3.2-3.2,3.2,1.4,3.2,3.2-1.4,3.2-3.2,3.2ZM37,37h-5.3v-9.1c0-2.5-.9-3.9-2.9-3.9s-3.3,1.5-3.3,3.9v9.1h-5.1v-17.3h5.1v2.3s1.5-2.9,5.2-2.9,6.3,2.2,6.3,6.9v11Z"/>
</svg>