<?xml version="1.0" encoding="UTF-8"?>
<svg id="Calque_1" data-name="Calque 1" xmlns="http://www.w3.org/2000/svg" version="1.1" viewBox="0 0 361.57 117.98">
  <defs>
    <style>
      .cls-1 {
        fill: #9a1c40;
      }

      .cls-1, .cls-2 {
        stroke-width: 0px;
      }

      .cls-2 {
        fill: #fff;
      }
    </style>
  </defs>
  <g>
    <path class="cls-2" d="M90.56,19.84h4.01l-.63,2.93c1.7-2.17,4.81-3.45,8.79-3.45s7.14,1.64,8.3,4.55c2.51-3.45,6.44-4.55,10.33-4.55,5.9,0,9.82,3.59,8.57,9.47l-2.12,9.88h-4.01l1.99-9.31c.98-4.61-1.29-6.78-5.75-6.78s-7.92,2.33-8.88,6.83l-1.97,9.25h-4.01l1.99-9.31c.98-4.61-1.28-6.78-5.75-6.78s-7.92,2.33-8.88,6.83l-1.97,9.25h-4.01l4.01-18.83v.02Z"/>
    <path class="cls-2" d="M152.07,19.84h4.03l-4.02,18.83h-4.01s4-18.83,4-18.83ZM152.74,13.8c0-1.48,1.1-2.46,2.6-2.46s2.59.98,2.61,2.46c0,1.46-1.1,2.46-2.59,2.46s-2.61-.99-2.62-2.46h0Z"/>
    <path class="cls-2" d="M173.01,28.03c1.07-5.49,6.38-8.71,13.46-8.71,5.3,0,9.71,2.15,11.45,5.49l-2.98,1.83c-1.23-2.42-4.54-4.03-8.68-4.03s-8.26,1.99-8.97,5.76c-.83,4.48,2.71,7.52,7.87,7.52,3.42,0,6.36-1.07,8.62-3.43l2.61,2.29c-2.69,2.91-6.66,4.43-11.32,4.43-8.56,0-13.19-5.06-12.05-11.15h-.01Z"/>
    <path class="cls-2" d="M219.91,12.11h4.03l-2.21,10.66c1.66-2.17,4.72-3.45,8.7-3.45,5.9,0,9.84,3.59,8.68,9.47l-2.21,9.88h-4.03l2.06-9.31c.94-4.61-1.36-6.78-5.82-6.78s-7.89,2.33-8.75,6.83l-2.08,9.25h-4.03l5.66-26.56h0Z"/>
    <path class="cls-2" d="M257.62,28.19c1.09-5.58,6.96-8.87,13.13-8.87,7.67,0,12.86,3.94,11.88,11.11h-21c.29,3.31,3.67,5.46,8.64,5.46,3.27,0,6.22-.89,8.79-2.93l2.08,2.71c-3.24,2.46-6.98,3.51-11.61,3.51-7.63,0-13.11-4.46-11.92-10.99h0ZM278.51,27.27c-.51-3.12-3.31-4.88-7.7-4.88-3.53,0-7.27,1.5-8.64,4.88h16.35,0Z"/>
    <path class="cls-2" d="M305.55,12.11h4.03l-5.64,26.56h-4.03s5.64-26.56,5.64-26.56Z"/>
  </g>
  <polygon class="cls-1" points="15.23 102.69 15.23 106.63 71.77 106.63 72.61 102.69 15.23 102.69"/>
  <g>
    <path class="cls-2" d="M28.65,30.53h26.65c15.14,0,21.15,7.27,19.08,17.09-1.35,6.39-5.84,9.94-10.07,12.18,5.96,2.28,9.35,7.61,7.61,15.69-2.45,11.55-12.52,17.21-28.25,17.21H15.45l13.19-62.17h.01ZM45.86,78.4c4.44,0,6.68-1.82,7.4-5.07.68-3.3-.59-5.37-5.16-5.37h-9.73l-2.24,10.45h9.73ZM49.16,54.76c3.3,0,5.5-1.82,6.13-4.86.68-3.04-.59-5.12-4.02-5.12h-8l-2.11,9.98h8Z"/>
    <path class="cls-2" d="M78.3,68.68c1.82-13.41,13.11-21.82,27.53-21.82,15.4,0,25.12,11.8,23.22,25.46-1.86,13.45-13.07,21.87-27.53,21.87-15.39,0-25.17-11.8-23.22-25.51ZM112.43,70.88c1.02-5.37-1.94-9.43-7.44-9.43-4.99,0-9.01,3.43-10.07,8.67-1.01,5.37,1.9,9.47,7.4,9.47,5.03,0,9.1-3.47,10.11-8.71Z"/>
    <path class="cls-2" d="M141.91,48.63h17.04l-1.01,4.4c3.17-3.89,8.04-5.88,13.91-5.88,10.41,0,15.4,6.81,12.77,19.37l-5.54,26.18h-17l4.9-23.01c1.48-5.79.08-8.25-4.1-8.25s-6.98,2.62-8.29,7.95l-5.03,23.31h-17.05l9.39-44.07h0Z"/>
    <path class="cls-2" d="M198.66,48.63h17.04l-1.01,4.4c3.17-3.89,8.04-5.88,13.91-5.88,10.41,0,15.4,6.81,12.77,19.37l-5.54,26.18h-17l4.9-23.01c1.48-5.79.08-8.25-4.1-8.25s-6.98,2.62-8.29,7.95l-5.03,23.31h-17.04l9.39-44.07h0Z"/>
    <path class="cls-2" d="M249.45,74.81l5.54-26.18h17.04l-4.95,23.01c-1.48,5.75-.08,8.25,4.1,8.25s6.98-2.62,8.33-7.95l4.99-23.31h17.04l-9.39,44.07h-17.04l1.02-4.4c-3.17,3.89-8,5.88-13.92,5.88-10.41,0-15.4-6.81-12.77-19.37h.01Z"/>
    <path class="cls-2" d="M301.85,84.62l9.81-9.1c2.75,4.44,6.47,6.34,10.87,6.34,2.07,0,4.02-.51,4.35-2.07.34-1.52-.93-2.24-4.44-3.55l-3.89-1.35c-7.49-2.58-12.52-7.95-11.34-15.56,1.27-8.25,9.43-12.48,19.24-12.48,8.54,0,16.11,3.34,19.88,9.22l-10.41,8.29c-1.65-3.47-5.2-5.12-8.42-5.2-2.11-.04-3.93.55-4.27,1.94-.3,1.48.97,2.16,4.23,3.3l4.19,1.39c7.49,2.58,12.86,6.68,11.55,15.14-1.35,8.67-9.47,13.24-20.05,13.24-9.13,0-17.13-3.38-21.32-9.56h.02Z"/>
  </g>
</svg>