<?xml version="1.0" encoding="UTF-8"?>
<svg id="Calque_1" data-name="Calque 1" xmlns="http://www.w3.org/2000/svg" version="1.1" viewBox="0 0 361.6 118">
  <defs>
    <style>
      .cls-1 {
        fill: #9a1c40;
      }

      .cls-1, .cls-2 {
        stroke-width: 0px;
      }

      .cls-2 {
        fill: #26539c;
      }
    </style>
  </defs>
  <g>
    <path class="cls-2" d="M90.6,19.8h4l-.6,2.9c1.7-2.2,4.8-3.5,8.8-3.5s7.1,1.6,8.3,4.5c2.5-3.5,6.4-4.5,10.3-4.5,5.9,0,9.8,3.6,8.6,9.5l-2.1,9.9h-4l2-9.3c1-4.6-1.3-6.8-5.8-6.8s-7.9,2.3-8.9,6.8l-2,9.2h-4l2-9.3c1-4.6-1.3-6.8-5.8-6.8s-7.9,2.3-8.9,6.8l-2,9.2h-4l4-18.8h0s0,0,0,0Z"/>
    <path class="cls-2" d="M152.1,19.8h4l-4,18.8h-4s4-18.8,4-18.8ZM152.7,13.8c0-1.5,1.1-2.5,2.6-2.5s2.6,1,2.6,2.5c0,1.5-1.1,2.5-2.6,2.5s-2.6-1-2.6-2.5h0Z"/>
    <path class="cls-2" d="M173,28c1.1-5.5,6.4-8.7,13.5-8.7s9.7,2.1,11.4,5.5l-3,1.8c-1.2-2.4-4.5-4-8.7-4s-8.3,2-9,5.8c-.8,4.5,2.7,7.5,7.9,7.5s6.4-1.1,8.6-3.4l2.6,2.3c-2.7,2.9-6.7,4.4-11.3,4.4-8.6,0-13.2-5.1-12.1-11.1h0Z"/>
    <path class="cls-2" d="M219.9,12.1h4l-2.2,10.7c1.7-2.2,4.7-3.5,8.7-3.5,5.9,0,9.8,3.6,8.7,9.5l-2.2,9.9h-4l2.1-9.3c.9-4.6-1.4-6.8-5.8-6.8s-7.9,2.3-8.8,6.8l-2.1,9.2h-4l5.7-26.6h0Z"/>
    <path class="cls-2" d="M257.6,28.2c1.1-5.6,7-8.9,13.1-8.9s12.9,3.9,11.9,11.1h-21c.3,3.3,3.7,5.5,8.6,5.5s6.2-.9,8.8-2.9l2.1,2.7c-3.2,2.5-7,3.5-11.6,3.5-7.6,0-13.1-4.5-11.9-11h0ZM278.5,27.3c-.5-3.1-3.3-4.9-7.7-4.9s-7.3,1.5-8.6,4.9h16.4,0Z"/>
    <path class="cls-2" d="M305.5,12.1h4l-5.6,26.6h-4s5.6-26.6,5.6-26.6Z"/>
  </g>
  <polygon class="cls-1" points="15.2 102.7 15.2 106.6 71.8 106.6 72.6 102.7 15.2 102.7"/>
  <g>
    <path class="cls-2" d="M28.6,30.5h26.6c15.1,0,21.1,7.3,19.1,17.1-1.3,6.4-5.8,9.9-10.1,12.2,6,2.3,9.3,7.6,7.6,15.7-2.4,11.6-12.5,17.2-28.2,17.2H15.4l13.2-62.2s0,0,0,0ZM45.9,78.4c4.4,0,6.7-1.8,7.4-5.1.7-3.3-.6-5.4-5.2-5.4h-9.7l-2.2,10.4h9.7ZM49.2,54.8c3.3,0,5.5-1.8,6.1-4.9.7-3-.6-5.1-4-5.1h-8l-2.1,10h8Z"/>
    <path class="cls-2" d="M78.3,68.7c1.8-13.4,13.1-21.8,27.5-21.8s25.1,11.8,23.2,25.5c-1.9,13.4-13.1,21.9-27.5,21.9s-25.2-11.8-23.2-25.5ZM112.4,70.9c1-5.4-1.9-9.4-7.4-9.4s-9,3.4-10.1,8.7c-1,5.4,1.9,9.5,7.4,9.5s9.1-3.5,10.1-8.7Z"/>
    <path class="cls-2" d="M141.9,48.6h17l-1,4.4c3.2-3.9,8-5.9,13.9-5.9,10.4,0,15.4,6.8,12.8,19.4l-5.5,26.2h-17l4.9-23c1.5-5.8,0-8.2-4.1-8.2s-7,2.6-8.3,7.9l-5,23.3h-17.1l9.4-44.1h0Z"/>
    <path class="cls-2" d="M198.7,48.6h17l-1,4.4c3.2-3.9,8-5.9,13.9-5.9,10.4,0,15.4,6.8,12.8,19.4l-5.5,26.2h-17l4.9-23c1.5-5.8,0-8.2-4.1-8.2s-7,2.6-8.3,7.9l-5,23.3h-17l9.4-44.1h0Z"/>
    <path class="cls-2" d="M249.4,74.8l5.5-26.2h17l-5,23c-1.5,5.8,0,8.2,4.1,8.2s7-2.6,8.3-7.9l5-23.3h17l-9.4,44.1h-17l1-4.4c-3.2,3.9-8,5.9-13.9,5.9-10.4,0-15.4-6.8-12.8-19.4h0Z"/>
    <path class="cls-2" d="M301.9,84.6l9.8-9.1c2.8,4.4,6.5,6.3,10.9,6.3s4-.5,4.4-2.1c.3-1.5-.9-2.2-4.4-3.6l-3.9-1.3c-7.5-2.6-12.5-7.9-11.3-15.6,1.3-8.2,9.4-12.5,19.2-12.5s16.1,3.3,19.9,9.2l-10.4,8.3c-1.6-3.5-5.2-5.1-8.4-5.2-2.1,0-3.9.5-4.3,1.9-.3,1.5,1,2.2,4.2,3.3l4.2,1.4c7.5,2.6,12.9,6.7,11.5,15.1-1.4,8.7-9.5,13.2-20,13.2s-17.1-3.4-21.3-9.6h0Z"/>
  </g>
</svg>