<?xml version="1.0" encoding="UTF-8"?>
<svg id="Calque_1" data-name="Calque 1" xmlns="http://www.w3.org/2000/svg" version="1.1" viewBox="0 0 48 48">
  <defs>
    <style>
      .cls-1 {
        fill: #fff;
        stroke-width: 0px;
      }
    </style>
  </defs>
  <polygon class="cls-1" points="15.1 13.9 30.5 34 32.9 34 17.7 13.9 15.1 13.9"/>
  <path class="cls-1" d="M37,6H11c-2.8,0-5,2.2-5,5v26c0,2.8,2.2,5,5,5h26c2.8,0,5-2.2,5-5V11c0-2.8-2.2-5-5-5ZM29.3,36.5l-6.7-8.7-7.7,8.7h-4.2l9.9-11.3-10.4-13.7h8.8l6,8,7.1-8h4.2l-9.3,10.6,10.9,14.4h-8.5Z"/>
</svg>